<svg xmlns="http://www.w3.org/2000/svg" aria-hidden="true" viewBox="0 0 32 32" transform="rotate(360)" fill="rgb(174, 240, 200)"><path d="M26.749 24.93A13.99 13.99 0 102 16a13.899 13.899 0 003.251 8.93l-.02.017c.07.084.15.156.222.239.09.103.187.2.28.3.28.304.568.596.87.87.092.084.187.162.28.242.32.276.649.538.99.782.044.03.084.069.128.1v-.012a13.901 13.901 0 0016 0v.012c.044-.031.083-.07.128-.1.34-.245.67-.506.99-.782.093-.08.188-.159.28-.242.302-.275.59-.566.87-.87.093-.1.189-.197.28-.3.071-.083.152-.155.222-.24zM16 8a4.5 4.5 0 11-4.5 4.5A4.5 4.5 0 0116 8zM8.007 24.93A4.996 4.996 0 0113 20h6a4.996 4.996 0 014.993 4.93 11.94 11.94 0 01-15.986 0z"></path></svg>