<svg viewBox="0 0 32 32" fill="none" xmlns="http://www.w3.org/2000/svg" width="45"><path fill-rule="evenodd" clip-rule="evenodd" d="M20.705 23.382l-2.886.777v-1.021l-.23-.235h-1.652v2.033h1.767l2.175-.958.826-.596z" fill="#CDBDB2"/><path fill-rule="evenodd" clip-rule="evenodd" d="M11.295 23.382l2.823.777v-1.021l.24-.235H16v2.033h-1.767l-2.175-.958-.763-.596z" fill="#CDBDB2"/><path fill-rule="evenodd" clip-rule="evenodd" d="M17.59 21.168l.23 1.97-.293-.235h-3.054l-.355.234.24-1.969.47-.298 2.354.053.407.245z" fill="#393939"/><path fill-rule="evenodd" clip-rule="evenodd" d="M19.179 7.81l-1.412 3.353-.648 9.76h-2.29l-.711-9.76L12.82 7.81h6.358z" fill="#F89C35"/><path fill-rule="evenodd" clip-rule="evenodd" d="M25.348 15.175L27 20.03l-4.12-.245h-2.645v-2.096l.115-4.3.596.468 4.402 1.32z" fill="#F89D35"/><path fill-rule="evenodd" clip-rule="evenodd" d="M22.231 15.719l-4.82.117.533 2.512 2.29-.596 1.997-2.033z" fill="#D87C30"/><path fill-rule="evenodd" clip-rule="evenodd" d="M22.231 15.771l-1.997 1.916v1.916l1.997-3.832z" fill="#EA8D3A"/><path fill-rule="evenodd" clip-rule="evenodd" d="M20.234 17.751l-2.352.596-.764 2.576.534.298 2.582-1.554v-1.916z" fill="#F89D35"/><path fill-rule="evenodd" clip-rule="evenodd" d="M20.235 19.668l.47 3.714-3.116-2.214 2.646-1.5z" fill="#EB8F35"/><path fill-rule="evenodd" clip-rule="evenodd" d="M17.413 15.835l-.292 5.088.877-2.597-.585-2.49z" fill="#EA8E3A"/><path fill-rule="evenodd" clip-rule="evenodd" d="M22.943 19.731l-2.708-.064.47 3.715 2.238-3.65z" fill="#D87C30"/><path fill-rule="evenodd" clip-rule="evenodd" d="M25.703 25l-4.998-1.618 2.238-3.65 4.057.297L25.703 25z" fill="#EB8F35"/><path fill-rule="evenodd" clip-rule="evenodd" d="M17.767 11.163l2.53 2.16 1.934 2.396-4.82.18.356-4.736z" fill="#E8821E"/><path fill-rule="evenodd" clip-rule="evenodd" d="M20.705 23.382l-3.116-2.214.23 1.916v1.075l2.123-.415.763-.362zm-9.41 0l3.063-2.214-.24 1.916v1.075l-2.112-.415-.711-.362z" fill="#DFCEC3"/><path fill-rule="evenodd" clip-rule="evenodd" d="M18.709 16.91l-.648 1.384 2.29-.607-1.642-.777z" fill="#393939"/><path fill-rule="evenodd" clip-rule="evenodd" d="M25.768 5l-8 6.163 1.35-3.353L25.767 5z" fill="#E88F35"/><path fill-rule="evenodd" clip-rule="evenodd" d="M25.766 5l1.056 3.289-.585 3.598.408.234-.586.543.47.415-.648.596.408.362-.941 1.192-4.412-1.373c-2.154-1.756-3.221-2.65-3.18-2.693.043-.043 2.72-2.097 8.01-6.163z" fill="#8E5A30"/><path fill-rule="evenodd" clip-rule="evenodd" d="M6.652 15.176L5 20.029l4.12-.244h2.645v-2.097l-.115-4.3-.585.468-4.413 1.32z" fill="#F89D35"/><path fill-rule="evenodd" clip-rule="evenodd" d="M9.769 15.719l4.82.117-.523 2.512-2.3-.596-1.997-2.033z" fill="#D87C30"/><path fill-rule="evenodd" clip-rule="evenodd" d="M9.769 15.771l1.997 1.916v1.916l-1.997-3.832z" fill="#EA8D3A"/><path fill-rule="evenodd" clip-rule="evenodd" d="M11.766 17.751l2.352.596.764 2.576-.523.298-2.593-1.554v-1.916z" fill="#F89D35"/><path fill-rule="evenodd" clip-rule="evenodd" d="M11.765 19.668l-.47 3.714 3.064-2.16-2.594-1.555z" fill="#EB8F35"/><path fill-rule="evenodd" clip-rule="evenodd" d="M14.588 15.835l.292 5.088-.877-2.597.585-2.49z" fill="#EA8E3A"/><path fill-rule="evenodd" clip-rule="evenodd" d="M9.058 19.731l2.708-.064-.47 3.715-2.238-3.65z" fill="#D87C30"/><path fill-rule="evenodd" clip-rule="evenodd" d="M6.297 25l4.998-1.618-2.238-3.65L5 20.028 6.297 25z" fill="#EB8F35"/><path fill-rule="evenodd" clip-rule="evenodd" d="M14.233 11.163l-2.53 2.16-1.934 2.396 4.82.18-.356-4.736z" fill="#E8821E"/><path fill-rule="evenodd" clip-rule="evenodd" d="M13.292 16.91l.648 1.384-2.29-.607 1.642-.777z" fill="#393939"/><path fill-rule="evenodd" clip-rule="evenodd" d="M6.234 5l8 6.163-1.35-3.353L6.234 5z" fill="#E88F35"/><path fill-rule="evenodd" clip-rule="evenodd" d="M6.234 5L5.178 8.289l.585 3.598-.408.234.586.543-.47.415.648.596-.408.362.941 1.192 4.413-1.373c2.154-1.756 3.22-2.65 3.178-2.693-.042-.043-2.708-2.097-8.01-6.163z" fill="#8E5A30"/></svg>