<svg width="800" height="800" viewBox="0 0 25 25" fill="none" xmlns="http://www.w3.org/2000/svg"><path d="M4.562 13.5l-.42.43.43.419.42-.43-.43-.419zm5.362 2.424l6-6-.848-.848-6 6 .848.848zm-.848-6l6 6 .848-.848-6-6-.848.848zM19.9 12.5a7.4 7.4 0 01-7.4 7.4v1.2a8.6 8.6 0 008.6-8.6h-1.2zm-14.8 0a7.4 7.4 0 017.4-7.4V3.9a8.6 8.6 0 00-8.6 8.6h1.2zm7.4-7.4a7.4 7.4 0 017.4 7.4h1.2a8.6 8.6 0 00-8.6-8.6v1.2zm-7.343 8.326A7.482 7.482 0 015.1 12.5H3.9c0 .364.023.722.067 1.074l1.19-.148zM12.5 19.9a7.392 7.392 0 01-6.12-3.238l-.991.676A8.592 8.592 0 0012.5 21.1v-1.2zm-7.509-5.981l2.439-2.5-.86-.838-2.438 2.5.86.838zm-.01-.848l-2.562-2.5-.838.858 2.562 2.5.838-.858z" fill="#50c392"/></svg>